<svg width="800" height="800" viewBox="0 0 800 800" fill="none" xmlns="http://www.w3.org/2000/svg">
<g clip-path="url(#clip0_22_25)">
<circle cx="400" cy="400" r="400" fill="white"/>
<path d="M261.351 482.341H211.16C197.107 474.756 169 453.698 169 430.142C169 406.586 189.076 382.405 199.114 373.26M199.114 373.26H407.238C431.999 362.775 481.521 334.847 481.521 307.008C481.521 279.169 481.521 245.887 481.521 232.726H321.58C309.534 232.056 292.804 241.425 278.081 256.148C263.851 270.378 219.86 340.468 199.114 373.26Z" stroke="#497C9B" stroke-width="25" stroke-linejoin="round"/>
<path d="M302.842 451.557V542.569L352.363 492.379L397.87 542.569V493.717V469.291V444.865C395.193 437.95 381.273 424.119 347.01 424.119C312.746 424.119 302.842 451.557 302.842 451.557Z" fill="#497C9B"/>
<path d="M432.669 476.987H529.704C549.334 467.395 588.594 443.393 588.594 424.119C588.594 404.846 588.594 236.741 588.594 155.097C584.802 138.59 569.589 105.576 539.073 105.576C508.557 105.576 493.343 138.59 489.551 155.097V209.972M302.842 542.569V451.557C302.842 451.557 312.746 424.119 347.01 424.119C381.273 424.119 395.193 437.95 397.87 444.865V469.291V493.717V542.569L352.363 492.379L302.842 542.569Z" stroke="#497C9B" stroke-width="25" stroke-linejoin="round"/>
<circle cx="483.476" cy="201.942" r="31.9757" fill="white" stroke="#497C9B" stroke-width="11" stroke-linejoin="round"/>
<circle cx="593.226" cy="201.942" r="31.9757" fill="white" stroke="#497C9B" stroke-width="11" stroke-linejoin="round"/>
<path d="M512.921 199.265H565.119" stroke="#497C9B" stroke-width="11" stroke-linejoin="round"/>
<path d="M524 254.14C524 259.048 526.945 268.863 538.723 268.863C550.501 268.863 553.445 259.048 553.445 254.14" stroke="#497C9B" stroke-width="6" stroke-linejoin="round"/>
<path d="M152 636V566.182H178.727C183.773 566.182 187.966 566.977 191.307 568.568C194.67 570.136 197.182 572.284 198.841 575.011C200.523 577.739 201.364 580.83 201.364 584.284C201.364 587.125 200.818 589.557 199.727 591.58C198.636 593.58 197.17 595.205 195.33 596.455C193.489 597.705 191.432 598.602 189.159 599.148V599.83C191.636 599.966 194.011 600.727 196.284 602.114C198.58 603.477 200.455 605.409 201.909 607.909C203.364 610.409 204.091 613.432 204.091 616.977C204.091 620.591 203.216 623.841 201.466 626.727C199.716 629.591 197.08 631.852 193.557 633.511C190.034 635.17 185.602 636 180.261 636H152ZM164.648 625.432H178.25C182.841 625.432 186.148 624.557 188.17 622.807C190.216 621.034 191.239 618.761 191.239 615.989C191.239 613.92 190.727 612.057 189.705 610.398C188.682 608.716 187.227 607.398 185.341 606.443C183.455 605.466 181.205 604.977 178.591 604.977H164.648V625.432ZM164.648 595.875H177.159C179.341 595.875 181.307 595.477 183.057 594.682C184.807 593.864 186.182 592.716 187.182 591.239C188.205 589.739 188.716 587.966 188.716 585.92C188.716 583.216 187.761 580.989 185.852 579.239C183.966 577.489 181.159 576.614 177.432 576.614H164.648V595.875Z" fill="black"/>
<path d="M237.389 637.023C232.276 637.023 227.844 635.898 224.094 633.648C220.344 631.398 217.435 628.25 215.366 624.205C213.321 620.159 212.298 615.432 212.298 610.023C212.298 604.614 213.321 599.875 215.366 595.807C217.435 591.739 220.344 588.58 224.094 586.33C227.844 584.08 232.276 582.955 237.389 582.955C242.503 582.955 246.935 584.08 250.685 586.33C254.435 588.58 257.332 591.739 259.378 595.807C261.446 599.875 262.48 604.614 262.48 610.023C262.48 615.432 261.446 620.159 259.378 624.205C257.332 628.25 254.435 631.398 250.685 633.648C246.935 635.898 242.503 637.023 237.389 637.023ZM237.457 627.136C240.23 627.136 242.548 626.375 244.412 624.852C246.276 623.307 247.662 621.239 248.571 618.648C249.503 616.057 249.969 613.17 249.969 609.989C249.969 606.784 249.503 603.886 248.571 601.295C247.662 598.682 246.276 596.602 244.412 595.057C242.548 593.511 240.23 592.739 237.457 592.739C234.616 592.739 232.253 593.511 230.366 595.057C228.503 596.602 227.105 598.682 226.173 601.295C225.264 603.886 224.81 606.784 224.81 609.989C224.81 613.17 225.264 616.057 226.173 618.648C227.105 621.239 228.503 623.307 230.366 624.852C232.253 626.375 234.616 627.136 237.457 627.136Z" fill="black"/>
<path d="M295.795 637.023C290.682 637.023 286.25 635.898 282.5 633.648C278.75 631.398 275.841 628.25 273.773 624.205C271.727 620.159 270.705 615.432 270.705 610.023C270.705 604.614 271.727 599.875 273.773 595.807C275.841 591.739 278.75 588.58 282.5 586.33C286.25 584.08 290.682 582.955 295.795 582.955C300.909 582.955 305.341 584.08 309.091 586.33C312.841 588.58 315.739 591.739 317.784 595.807C319.852 599.875 320.886 604.614 320.886 610.023C320.886 615.432 319.852 620.159 317.784 624.205C315.739 628.25 312.841 631.398 309.091 633.648C305.341 635.898 300.909 637.023 295.795 637.023ZM295.864 627.136C298.636 627.136 300.955 626.375 302.818 624.852C304.682 623.307 306.068 621.239 306.977 618.648C307.909 616.057 308.375 613.17 308.375 609.989C308.375 606.784 307.909 603.886 306.977 601.295C306.068 598.682 304.682 596.602 302.818 595.057C300.955 593.511 298.636 592.739 295.864 592.739C293.023 592.739 290.659 593.511 288.773 595.057C286.909 596.602 285.511 598.682 284.58 601.295C283.67 603.886 283.216 606.784 283.216 609.989C283.216 613.17 283.67 616.057 284.58 618.648C285.511 621.239 286.909 623.307 288.773 624.852C290.659 626.375 293.023 627.136 295.864 627.136Z" fill="black"/>
<path d="M342.611 619.568L342.577 604.67H344.554L363.372 583.636H377.793L354.645 609.409H352.088L342.611 619.568ZM331.361 636V566.182H343.702V636H331.361ZM364.224 636L347.179 612.17L355.497 603.477L378.986 636H364.224Z" fill="black"/>
<path d="M401.256 636L381.551 566.182H395.153L407.733 617.489H408.381L421.812 566.182H434.188L447.653 617.523H448.267L460.847 566.182H474.449L454.744 636H442.267L428.29 587.011H427.744L413.733 636H401.256Z" fill="black"/>
<path d="M500.17 637.023C495.057 637.023 490.625 635.898 486.875 633.648C483.125 631.398 480.216 628.25 478.148 624.205C476.102 620.159 475.08 615.432 475.08 610.023C475.08 604.614 476.102 599.875 478.148 595.807C480.216 591.739 483.125 588.58 486.875 586.33C490.625 584.08 495.057 582.955 500.17 582.955C505.284 582.955 509.716 584.08 513.466 586.33C517.216 588.58 520.114 591.739 522.159 595.807C524.227 599.875 525.261 604.614 525.261 610.023C525.261 615.432 524.227 620.159 522.159 624.205C520.114 628.25 517.216 631.398 513.466 633.648C509.716 635.898 505.284 637.023 500.17 637.023ZM500.239 627.136C503.011 627.136 505.33 626.375 507.193 624.852C509.057 623.307 510.443 621.239 511.352 618.648C512.284 616.057 512.75 613.17 512.75 609.989C512.75 606.784 512.284 603.886 511.352 601.295C510.443 598.682 509.057 596.602 507.193 595.057C505.33 593.511 503.011 592.739 500.239 592.739C497.398 592.739 495.034 593.511 493.148 595.057C491.284 596.602 489.886 598.682 488.955 601.295C488.045 603.886 487.591 606.784 487.591 609.989C487.591 613.17 488.045 616.057 488.955 618.648C489.886 621.239 491.284 623.307 493.148 624.852C495.034 626.375 497.398 627.136 500.239 627.136Z" fill="black"/>
<path d="M535.736 636V583.636H547.702V592.364H548.247C549.202 589.341 550.838 587.011 553.156 585.375C555.497 583.716 558.168 582.886 561.168 582.886C561.849 582.886 562.611 582.92 563.452 582.989C564.315 583.034 565.031 583.114 565.599 583.227V594.58C565.077 594.398 564.247 594.239 563.111 594.102C561.997 593.943 560.918 593.864 559.872 593.864C557.622 593.864 555.599 594.352 553.804 595.33C552.031 596.284 550.634 597.614 549.611 599.318C548.588 601.023 548.077 602.989 548.077 605.216V636H535.736Z" fill="black"/>
<path d="M573.798 636V583.636H585.594V592.534H586.207C587.298 589.534 589.105 587.193 591.628 585.511C594.151 583.807 597.162 582.955 600.662 582.955C604.207 582.955 607.196 583.818 609.628 585.545C612.082 587.25 613.81 589.58 614.81 592.534H615.355C616.514 589.625 618.469 587.307 621.219 585.58C623.991 583.83 627.276 582.955 631.071 582.955C635.889 582.955 639.821 584.477 642.866 587.523C645.912 590.568 647.435 595.011 647.435 600.852V636H635.06V602.761C635.06 599.511 634.196 597.136 632.469 595.636C630.741 594.114 628.628 593.352 626.128 593.352C623.151 593.352 620.821 594.284 619.139 596.148C617.48 597.989 616.651 600.386 616.651 603.341V636H604.548V602.25C604.548 599.545 603.73 597.386 602.094 595.773C600.48 594.159 598.366 593.352 595.753 593.352C593.98 593.352 592.366 593.807 590.912 594.716C589.457 595.602 588.298 596.864 587.435 598.5C586.571 600.114 586.139 602 586.139 604.159V636H573.798Z" fill="black"/>
</g>
<defs>
<clipPath id="clip0_22_25">
<rect width="800" height="800" fill="white"/>
</clipPath>
</defs>
</svg>
